<?xml version="1.0" encoding="UTF-8"?>
<svg width="513px" height="546px" viewBox="0 0 513 546" version="1.1" xmlns="http://www.w3.org/2000/svg" xmlns:xlink="http://www.w3.org/1999/xlink">
    <!-- Generator: Sketch 52.5 (67469) - http://www.bohemiancoding.com/sketch -->
    <title>Illustration</title>
    <desc>Created with Sketch.</desc>
    <g id="Designs" stroke="none" stroke-width="1" fill="none" fill-rule="evenodd">
        <g id="Web—Hero" transform="translate(-65.000000, -160.000000)">
            <g id="Illustration" transform="translate(65.000000, 160.000000)">
                <g id="Web" transform="translate(43.000000, 0.000000)">
                    <rect id="Container" fill="#F2F2F2" x="0" y="0" width="428" height="374" rx="8"/>
                    <path d="M8,0 L420,0 C424.418278,-8.11624501e-16 428,3.581722 428,8 L428,29 L0,29 L-8.8817842e-16,8 C-1.42926142e-15,3.581722 3.581722,8.11624501e-16 8,0 Z" id="Header" fill="#C5CFD6"/>
                    <g id="Buttons" transform="translate(9.000000, 10.000000)" fill="#F2F2F2">
                        <circle id="buttons" cx="4" cy="4" r="4"/>
                        <circle id="buttons" cx="16" cy="4" r="4"/>
                        <circle id="buttons" cx="28" cy="4" r="4"/>
                    </g>
                    <g id="Content" transform="translate(16.000000, 43.000000)">
                        <g id="Components" transform="translate(326.000000, 89.000000)">
                            <rect id="Background" fill="#FFFFFF" x="0" y="0" width="70" height="220" rx="8"/>
                            <g id="Rows" transform="translate(18.000000, 18.000000)">
                                <rect id="Data" fill="#DDE3E9" x="0" y="0" width="34" height="29.8409091" rx="4"/>
                                <rect id="Data" fill="#AFB9C5" x="0" y="39.0227273" width="34" height="28.6931818" rx="4"/>
                                <rect id="Data" fill="#DDE3E9" x="0" y="76.8977273" width="34" height="28.6931818" rx="4"/>
                                <rect id="Data" fill="#DDE3E9" x="0" y="152.647727" width="34" height="28.6931818" rx="4"/>
                                <rect id="Data" fill="#C5CFD6" x="0" y="114.772727" width="34" height="28.6931818" rx="4"/>
                            </g>
                        </g>
                        <g id="Profile" transform="translate(326.000000, 0.000000)">
                            <rect id="Background" fill="#FFFFFF" x="0" y="0" width="70" height="88.4416961" rx="8"/>
                            <g id="Profile-Info" transform="translate(10.000000, 17.378092)" fill="#DDE3E9">
                                <circle id="Avatar" cx="25" cy="16.4699647" r="16"/>
                                <rect id="Name" x="0" y="35" width="50" height="6" rx="3"/>
                                <rect id="Name" x="8" y="45" width="34" height="6" rx="3"/>
                            </g>
                        </g>
                        <g id="Rows">
                            <g id="Row">
                                <rect id="Container" fill="#FFFFFF" x="0" y="0" width="318" height="51.3180212" rx="4"/>
                                <g id="Text-Stuff" transform="translate(9.000000, 15.395406)" fill="#DDE3E9">
                                    <rect id="Label" x="0" y="0" width="260" height="7.69770318" rx="3"/>
                                    <rect id="Label" x="0" y="12.8295053" width="174.520548" height="7.69770318" rx="3"/>
                                </g>
                                <g id="Check" transform="translate(277.015267, 18.659011)">
                                    <circle id="Background" fill="#DDE3E9" cx="7" cy="7" r="7"/>
                                    <circle id="Indicator" fill="#F2F2F2" cx="7" cy="7" r="3"/>
                                </g>
                            </g>
                            <g id="Row" transform="translate(0.000000, 60.053004)">
                                <rect id="Container" fill="#FFFFFF" x="0" y="0" width="318" height="42.5830389" rx="4"/>
                                <g id="Text-Stuff" transform="translate(9.000000, 12.774912)" fill="#DDE3E9">
                                    <rect id="Label" x="0" y="0" width="260" height="6.38745583" rx="3"/>
                                    <rect id="Label" x="0" y="10.6457597" width="174.520548" height="6.38745583" rx="3"/>
                                </g>
                                <g id="Check" transform="translate(277.015267, 14.291519)">
                                    <circle id="Background" fill="#DDE3E9" cx="7" cy="7" r="7"/>
                                    <circle id="Indicator" fill="#F2F2F2" cx="7" cy="7" r="3"/>
                                </g>
                            </g>
                            <g id="Row" transform="translate(0.000000, 111.371025)">
                                <rect id="Container" fill="#FFFFFF" x="0" y="0" width="318" height="42.5830389" rx="4"/>
                                <g id="Text-Stuff" transform="translate(9.000000, 12.774912)" fill="#DDE3E9">
                                    <rect id="Label" x="0" y="0" width="260" height="6.38745583" rx="3"/>
                                    <rect id="Label" x="0" y="10.6457597" width="174.520548" height="6.38745583" rx="3"/>
                                </g>
                                <g id="Check" transform="translate(277.015267, 14.291519)">
                                    <circle id="Background" fill="#DDE3E9" cx="7" cy="7" r="7"/>
                                    <circle id="Indicator" fill="#AFB9C5" cx="7" cy="7" r="3"/>
                                </g>
                            </g>
                            <g id="Row" transform="translate(0.000000, 265.325088)">
                                <rect id="Container" fill="#FFFFFF" x="0" y="0" width="318" height="42.5830389" rx="4"/>
                                <g id="Text-Stuff" transform="translate(9.000000, 12.774912)" fill="#DDE3E9">
                                    <rect id="Label" x="0" y="0" width="260" height="6.38745583" rx="3"/>
                                    <rect id="Label" x="0" y="10.6457597" width="174.520548" height="6.38745583" rx="3"/>
                                </g>
                                <g id="Check" transform="translate(277.015267, 14.291519)">
                                    <circle id="Background" fill="#DDE3E9" cx="7" cy="7" r="7"/>
                                    <circle id="Indicator" fill="#F2F2F2" cx="7" cy="7" r="3"/>
                                </g>
                            </g>
                            <g id="Row" transform="translate(0.000000, 214.007067)">
                                <rect id="Container" fill="#FFFFFF" x="0" y="0" width="318" height="42.5830389" rx="4"/>
                                <g id="Text-Stuff" transform="translate(9.000000, 12.774912)" fill="#DDE3E9">
                                    <rect id="Label" x="0" y="0" width="260" height="6.38745583" rx="3"/>
                                    <rect id="Label" x="0" y="10.6457597" width="174.520548" height="6.38745583" rx="3"/>
                                </g>
                                <g id="Check" transform="translate(277.015267, 14.291519)">
                                    <circle id="Background" fill="#DDE3E9" cx="7" cy="7" r="7"/>
                                    <circle id="Indicator" fill="#F2F2F2" cx="7" cy="7" r="3"/>
                                </g>
                            </g>
                            <g id="Row" transform="translate(0.000000, 162.689046)">
                                <rect id="Container" fill="#FFFFFF" x="0" y="0" width="318" height="42.5830389" rx="4"/>
                                <g id="Text-Stuff" transform="translate(9.000000, 12.774912)" fill="#DDE3E9">
                                    <rect id="Label" x="0" y="0" width="260" height="6.38745583" rx="3"/>
                                    <rect id="Label" x="0" y="10.6457597" width="174.520548" height="6.38745583" rx="3"/>
                                </g>
                                <g id="Check" transform="translate(277.015267, 14.291519)">
                                    <circle id="Background" fill="#DDE3E9" cx="7" cy="7" r="7"/>
                                    <circle id="Indicator" fill="#F2F2F2" cx="7" cy="7" r="3"/>
                                </g>
                            </g>
                        </g>
                    </g>
                </g>
                <g id="Group" transform="translate(0.000000, 60.000000)">
                    <g id="Group-3" transform="translate(133.500000, 192.000000) scale(-1, 1) translate(-133.500000, -192.000000) ">
                        <g id="Humaaan" transform="translate(133.500000, 192.000000) scale(-1, 1) translate(-133.500000, -192.000000) ">
                            <g id="Head/Front/Chongo" transform="translate(114.043637, 54.620196) rotate(-8.000000) translate(-114.043637, -54.620196) translate(53.523637, 8.479350)">
                                <g id="Head" stroke-width="1" transform="translate(48.044118, 27.423077)" fill="#D4A181">
                                    <path d="M7.35099367,30.5104968 C3.25130946,25.7258325 0.476557427,19.8621605 0.940220121,13.2917477 C2.27616145,-5.63944128 28.780678,-1.47482091 33.9363552,8.08001758 C39.0920324,17.6348561 38.4794039,41.8714963 31.8161505,43.5792125 C29.1588542,44.2602473 23.4980231,42.5919847 17.7366177,39.1391938 L21.3529412,64.5769231 L0,64.5769231 L7.35099367,30.5104968 Z"/>
                                </g>
                                <path d="M73.5461978,25.0965175 C70.6284593,24.2119021 66.3929282,23.9119007 64.6111662,24.1148491 C65.6247136,21.7003619 66.0269041,19.0103327 65.6990218,16.3911143 C65.3803343,13.8460584 64.2365602,11.6790172 63.1787412,9.40821973 C62.6911405,8.36153073 62.1385627,7.32054654 61.3147021,6.51994854 C60.4754486,5.70430412 59.4130661,5.16591319 58.2990562,4.90905437 C57.1590282,4.6461342 55.966964,4.66802638 54.8251651,4.90662983 C54.3200601,5.01216871 53.8668551,5.24178709 53.3714898,5.36943209 C52.8642053,5.50021474 52.6181232,5.18452512 52.2499196,4.86726668 C51.3625804,4.10282288 50.0617442,3.72545006 48.9391524,3.59038882 C47.6796592,3.43892626 46.3727612,3.6278266 45.1715703,4.03949955 C44.0023911,4.44026206 42.8791863,5.09103763 42.033871,6.03910483 C41.6574942,6.46111774 41.3158536,6.94146228 41.0938144,7.47179516 C41.0027511,7.68943346 40.9876988,7.81836204 40.7692695,7.89808668 C40.5672547,7.97189259 40.3309805,7.97403189 40.1224953,8.04427229 C38.1065705,8.72314403 36.3829746,10.2718558 35.4444846,12.2603367 C34.8969469,13.4204087 34.6375834,15.4628855 34.7086223,17.7521664 C34.7796612,20.0414472 36.858656,26.0148343 38.8031332,28.1936417 C40.5387847,30.1384096 43.0899873,31.4217766 45.5521018,31.9835573 C43.9178664,33.8408277 42.8300108,36.1616848 42.0255616,38.5220476 C41.1517762,41.0860007 40.6109815,43.7500731 40.4112824,46.4644903 C40.2215956,49.0434898 40.2040232,51.7708142 40.8121108,54.2947623 C41.3809669,56.6550539 42.5974827,58.5913358 44.6283236,59.8197229 C45.5585723,60.3824305 46.5594512,60.8051565 47.5661195,61.1915144 C48.5582122,61.5722388 49.5533018,61.9424093 50.5925268,62.1560542 C52.5593441,62.5602396 54.8255738,62.4908549 56.3406164,60.934299 C56.8866556,60.3731602 57.487183,59.6680464 57.8855594,58.9825428 C58.0287951,58.7360239 58.1151588,58.5747919 57.9411373,58.3338352 C57.7326521,58.0452434 57.3954386,57.8241109 57.1276294,57.5983433 C55.6003951,56.3111255 54.6550259,54.5926958 54.4167085,52.5505184 C54.1749174,50.4784621 54.7347148,47.8039784 56.7608562,46.8996956 C59.2619297,45.783408 62.0163049,47.0647071 64.2392846,48.2590792 C65.1840408,44.9437321 67.1238865,41.9586218 70.1652099,40.4378636 C73.5299204,38.7554454 77.3908816,38.5585584 80.8486305,37.1150289 C81.74966,36.7388683 82.6673764,36.3118637 83.3307694,35.5454233 C83.6079778,35.2250985 83.9332039,34.8095748 84.0438829,34.3859217 C84.1892981,33.8294181 83.8283142,33.3628364 83.5494712,32.928986 C82.0709356,30.6285949 76.4639363,25.9811329 73.5461978,25.0965175 Z" id="hair" fill="#191847"/>
                            </g>
                            <g id="Bottom/Standing/Jogging" transform="translate(0.000000, 171.929577)">
                                <polygon id="Leg" fill="#BA8B72" points="115.7 0 181.832708 110.192907 231.413212 203.351721 242.092412 203.351721 159.019582 4.51531526e-13"/>
                                <g id="Accessories/Shoe/Flat-Sneaker" transform="translate(222.500000, 176.518828)" fill="#E4E4E4">
                                    <path d="M2.28004921,22.4680239 C1.35018034,24.9605595 0.885245902,26.8353722 0.885245902,28.092462 C0.885245902,29.6703374 1.15118635,31.9728501 1.68306723,35 C3.53494727,35 20.178105,35 51.6125403,35 C52.9100303,30.7601938 52.1610439,28.4712589 49.3655809,28.1331953 C46.5701179,27.7951316 44.2478793,27.4898872 42.3988652,27.217462 L19.2938401,17.0363435 C18.7884459,16.8136439 18.1982092,17.0428133 17.9755097,17.5482075 C17.9728332,17.5542814 17.9702173,17.5603818 17.9676624,17.5665078 L16.5215329,21.0338582 C13.9336653,22.2273206 11.8307543,22.8240519 10.2127997,22.8240519 C8.93655596,22.8240519 7.18822216,22.3294296 4.96779829,21.3401852 L4.96778998,21.3402038 C3.95883528,20.8906937 2.77651599,21.3442132 2.32700593,22.3531679 C2.31016951,22.3909584 2.29450973,22.4292621 2.28004921,22.4680239 Z" id="shoe"/>
                                </g>
                                <path d="M217.64332,188.434194 L238.237971,182.224989 C229.214893,155.340893 218.15583,125.75593 205.060783,93.4701018 C191.965735,61.1842733 177.902141,30.0275727 162.87,2.84217094e-14 L104.703225,2.84217094e-14 C121.415733,37.9835007 139.133233,72.4963868 157.855724,103.538658 C176.578215,134.58093 196.507414,162.879442 217.64332,188.434194 Z" id="Pant" fill="#DB2721"/>
                                <path d="M111.353799,2.84217094e-14 C105.112113,38.7225441 93.073611,88.1950766 91.937501,89.7218137 C91.1800944,90.7396384 63.9132597,99.8459673 10.1369971,117.040801 L12.4438333,126.426456 C76.5719003,117.204755 110.361923,110.050181 113.8139,104.962732 C118.991867,97.3315595 144.846152,37.0451257 154.86,2.84217094e-14 L111.353799,2.84217094e-14 Z" id="Leg" fill="#D4A181"/>
                                <path d="M29.0402619,108.92762 L33.1035027,124.043896 C81.0675605,128.236601 110.456198,125.207108 121.269415,114.955418 C132.082633,104.703728 144.406509,66.3852551 158.241043,-1.13686838e-13 L102.77555,-1.13686838e-13 C94.0103145,54.3605913 89.1099774,82.6818857 88.0745387,84.9638832 C87.0391,87.2458806 67.3610078,95.2337928 29.0402619,108.92762 Z" id="Pant" fill="#FF4133"/>
                                <g id="Accessories/Shoe/Flat-Sneaker" transform="translate(21.805000, 136.602510) rotate(80.000000) translate(-21.805000, -136.602510) translate(-5.340000, 118.861925)" fill="#E4E4E4">
                                    <path d="M2.28004921,22.4680239 C1.35018034,24.9605595 0.885245902,26.8353722 0.885245902,28.092462 C0.885245902,29.6703374 1.15118635,31.9728501 1.68306723,35 C3.53494727,35 20.178105,35 51.6125403,35 C52.9100303,30.7601938 52.1610439,28.4712589 49.3655809,28.1331953 C46.5701179,27.7951316 44.2478793,27.4898872 42.3988652,27.217462 L19.2938401,17.0363435 C18.7884459,16.8136439 18.1982092,17.0428133 17.9755097,17.5482075 C17.9728332,17.5542814 17.9702173,17.5603818 17.9676624,17.5665078 L16.5215329,21.0338582 C13.9336653,22.2273206 11.8307543,22.8240519 10.2127997,22.8240519 C8.93655596,22.8240519 7.18822216,22.3294296 4.96779829,21.3401852 L4.96778998,21.3402038 C3.95883528,20.8906937 2.77651599,21.3442132 2.32700593,22.3531679 C2.31016951,22.3909584 2.29450973,22.4292621 2.28004921,22.4680239 Z" id="shoe"/>
                                </g>
                            </g>
                            <g id="Body/Pointing-Forward" transform="translate(129.294852, 163.138234) rotate(-8.000000) translate(-129.294852, -163.138234) translate(15.374852, 80.173445)">
                                <path d="M141.287004,37.9050194 L172.200403,21.0294675 C177.341112,14.9449021 182.406142,10.2193845 187.395494,6.85291487 C188.920079,6.21851546 191.586193,5.83453162 189.09287,10.2454019 C186.599547,14.6562722 184.175973,19.4076116 185.446222,20.7665053 C186.716472,22.125399 189.883954,20.2270844 191.399342,22.4848978 C192.409602,23.9901068 186.99821,26.3679131 175.165167,29.6183169 L152.702815,50.1174792 L141.287004,37.9050194 Z M189.703125,52.1433871 L203.282059,44.708333 C205.187376,37.4821881 207.46495,33.8464702 210.114781,33.8011795 C212.150403,32.8571353 208.605382,41.9880443 212.464277,41.1962135 C216.323171,40.4043826 225.74163,33.4225365 227.364477,34.8401151 C229.765375,36.9373312 227.624587,43.3770001 225.10223,46.5803906 C220.387948,52.5675233 216.484725,54.614942 206.837305,57.2960492 C201.793135,58.6978704 196.339496,61.5077004 190.476387,65.7255391 L189.703125,52.1433871 Z" id="Skin" fill="#BA8B72"/>
                                <path d="M127.230937,30.8366913 C137.943326,32.4179339 152.561129,32.4253508 169.302774,25.2081223 L173.174912,39.4376588 C161.034308,48.1576292 144.924596,54.3505065 132.077124,51.9453884 C121.952609,50.0500227 118.696981,36.9661925 127.230937,30.8366913 Z" id="Sleeve" fill="#2026A2" transform="translate(147.754124, 38.838038) rotate(-9.000000) translate(-147.754124, -38.838038) "/>
                                <path d="M140.811613,55.7131812 C152.306723,58.5705743 171.583311,55.2009183 198.641378,45.6042132 C205.352897,59.4435515 208.455464,69.3099384 207.949079,75.2033737 C184.737244,87.288525 164.842697,92.6766765 148.452249,93.0323766 C148.973115,102.725922 147.789349,111.949554 143.812721,120.377489 C135.63745,137.703893 87.7666921,121.657711 71.6710764,124.815991 C61.5915286,92.1888725 81.0806393,78.9293432 81.0963205,58.0526108 C81.1134931,35.1903641 99.5312715,-1.42108547e-13 102.241079,-1.42108547e-13 L126.953027,8.62748707e-14 C128.31653,17.4601989 135.179419,36.702851 140.811613,55.7131812 Z" id="Clothes" fill="#1F28CF"/>
                            </g>
                        </g>
                    </g>
                    <g id="Image" transform="translate(227.861501, 60.793699) rotate(-14.000000) translate(-227.861501, -60.793699) translate(177.361501, 26.793699)">
                        <path d="M50.8280383,54.6067275 C50.8260383,54.6117275 50.8240383,54.6167275 50.8210383,54.6227275 C50.8240383,54.6177275 50.8280383,54.5977275 50.8280383,54.6067275" id="Fill-35" fill="#C5CFD6"/>
                        <path d="M50.8233815,54.6143262 C50.8233815,54.6153262 50.8223815,54.6173262 50.8223815,54.6193262 C50.8223815,54.6143262 50.8313815,54.5993262 50.8233815,54.6143262" id="Fill-37" fill="#C5CFD6"/>
                        <path d="M50.8581098,54.5297294 C50.8511098,54.5497294 50.8421098,54.5687294 50.8341098,54.5887294 C50.8381098,54.5787294 50.8421098,54.5707294 50.8461098,54.5607294 C50.7421098,54.8207294 50.8081098,54.6517294 50.8581098,54.5297294" id="Fill-39" fill="#C5CFD6"/>
                        <path d="M50.8357258,54.5899536 C50.8317258,54.5989536 50.8277258,54.6089536 50.8237258,54.6179536 C50.7947258,54.6739536 50.8357258,54.5899536 50.8357258,54.5899536" id="Fill-41" fill="#C5CFD6"/>
                        <polygon id="Fill-43" fill="#C5CFD6" points="50.8245383 54.6140786 50.8245383 54.6140786 50.8245383 54.6130786"/>
                        <path d="M50.8240383,54.6145786 C50.8240383,54.6135786 50.8240383,54.6135786 50.8250383,54.6125786 C50.8240383,54.6135786 50.8240383,54.6135786 50.8240383,54.6145786" id="Fill-45" fill="#C5CFD6"/>
                        <path d="M50.8192941,54.621754 C50.8132941,54.633754 50.8472941,54.575754 50.8192941,54.621754" id="Fill-47" fill="#C5CFD6"/>
                        <path d="M50.8235383,54.6145786 L50.8255383,54.6125786 C50.8245383,54.6135786 50.8245383,54.6145786 50.8235383,54.6145786" id="Fill-49" fill="#C5CFD6"/>
                        <rect id="Photo-Background" fill="#2B44FF" x="0.574535623" y="0.818446954" width="100" height="66" rx="4"/>
                        <g id="icons8-night_landscape" transform="translate(9.057629, 20.092572)" fill="#000000" fill-opacity="0.2">
                            <polygon id="Mountains" points="29.3115079 0 0.47121868 47 58.1517972 47"/>
                            <polygon id="Mountains" points="59.0474583 12.5892857 33.5509707 47 84.543946 47"/>
                        </g>
                        <circle id="Sun" fill="#FFFFFF" cx="79.0165764" cy="23.6424793" r="9.5"/>
                    </g>
                </g>
                <g id="Humaaan" transform="translate(365.000000, 367.000000) scale(-1, 1) translate(-365.000000, -367.000000) translate(217.000000, 187.000000)">
                    <g id="Head/Front/Short-2" transform="translate(29.000000, 0.000000)">
                        <g id="Head" stroke-width="1" transform="translate(54.000000, 31.000000)" fill="#B28B67">
                            <path d="M8.26227388,34.4901268 C3.65436435,29.0813759 0.535634794,22.4528771 1.05677633,15.0254539 C2.55833022,-6.37502057 32.3485306,-1.66718886 38.1433414,9.13393292 C43.9381521,19.9350547 43.249578,47.3329958 35.7603014,49.2634576 C32.7735882,50.033323 26.4110012,48.1474609 19.935372,44.244306 L24,73 L0,73 L8.26227388,34.4901268 Z"/>
                        </g>
                        <path d="M60.4181384,70.3075201 C57.4059021,56.9064588 48.8245327,47.7714043 50.1351137,41.781703 C51.0088343,37.7885688 53.3375617,35.3053788 57.1212959,34.3321331 C59.0782074,26.4155009 65.3896485,23.0482486 76.0556193,24.2303763 C92.0545754,26.0035679 101.819448,32.6477587 97.6024819,47.2678779 C93.7260987,47.2678779 89.0464758,45.8659867 82.57553,48.2678779 C80.5223249,49.0299883 79.0538125,51.3933595 78.1699927,55.3579915 L75.2457978,55.3579915 C72.4077436,50.6530572 69.6094038,48.9241222 66.8507787,50.1711866 C64.0921535,51.418251 63.4650732,54.4473753 64.9695377,59.2585597 L63.529076,70.3075201 L60.4181384,70.3075201 Z" id="Hair" fill="#191847"/>
                    </g>
                    <g id="Bottom/Skinny-Jeans-1" transform="translate(0.000000, 187.000000)">
                        <g id="Seat" transform="translate(0.000000, 42.000000)" fill="#C5CFD6">
                            <path d="M16,0 L131,0 C139.836556,-1.623249e-15 147,7.163444 147,16 L147,108 C147,116.836556 139.836556,124 131,124 L16,124 C7.163444,124 1.082166e-15,116.836556 0,108 L0,16 C-1.082166e-15,7.163444 7.163444,1.623249e-15 16,0 Z M32,28 C29.790861,28 28,29.790861 28,32 L28,92 C28,94.209139 29.790861,96 32,96 L115,96 C117.209139,96 119,94.209139 119,92 L119,32 C119,29.790861 117.209139,28 115,28 L32,28 Z"/>
                        </g>
                        <path d="M246.158964,161 C226.443095,136.924175 213.102867,119.075435 206.13828,107.453779 C194.213216,87.5546842 184.453121,69.8481647 181.373078,63.0843539 C174.028322,46.9551796 198.281896,39.4026181 203.77103,46.9258 C212.079054,58.3124345 229.822044,94.1429674 257,154.417399 L246.158964,161 Z" id="LegLower" fill="#B28B67"/>
                        <path d="M205.757567,154 L169.065197,61.6367769 C161.217429,44.7995771 199.115758,33.7320765 204.883274,41.5677718 C217.977322,59.3572261 249.098846,129.534043 253,134.834115 L205.757567,154 Z" id="LegLower" fill="#2F3676"/>
                        <g id="Lower-Leg" transform="translate(167.172961, 98.499284) rotate(39.000000) translate(-167.172961, -98.499284) translate(139.672961, 26.499284)" fill="#B28B67">
                            <path d="M4.8104618,137.955033 C3.80382537,125.354418 1.93361965,81.7337126 3.80483649,61.543304 C4.34254917,55.7413902 4.90906557,50.1318704 5.47997786,44.8696433 C7.17693121,29.2284421 36.1790278,29.7228704 33.8758977,44.5827954 C28.1401936,81.5898816 18.0447004,133.45317 17.3211185,137.93445 C16.3069876,144.215156 5.44310141,145.874127 4.8104618,137.955033 Z" id="LegLower"/>
                        </g>
                        <g id="Accessories/Shoe/Flat-Sneaker" transform="translate(136.500000, 140.000000) rotate(30.000000) translate(-136.500000, -140.000000) translate(106.000000, 120.000000)" fill="#E4E4E4">
                            <path d="M2.67813181,25.4019242 C1.55937727,28.3884109 1,30.6229931 1,32.1056708 C1,33.908957 1.3004142,36.5404001 1.90124261,40 C3.99318117,40 22.7937852,40 58.3030548,40 C59.768738,35.1545073 58.9226607,32.5385816 55.7648228,32.1522232 C52.606985,31.7658647 49.9837155,31.4170139 47.8950143,31.1056708 L21.6799926,19.4188835 C21.1755635,19.1940064 20.584344,19.4206282 20.359467,19.9250573 C20.35562,19.9336867 20.3518954,19.9423702 20.3482945,19.9511052 L18.6632131,24.038695 C15.7398812,25.4026522 13.3643706,26.0846307 11.5366811,26.0846307 C10.0517269,26.0846307 8.00099246,25.4849054 5.38447792,24.2854549 L5.38448339,24.285443 C4.38038273,23.8251478 3.19325534,24.2659892 2.73296014,25.2700899 C2.71312074,25.3133681 2.69483298,25.3573409 2.67813181,25.4019242 Z" id="shoe"/>
                        </g>
                        <g id="Accessories/Shoe/Flat-Sneaker" transform="translate(235.000000, 132.000000)" fill="#E4E4E4">
                            <path d="M2.67813181,25.4019242 C1.55937727,28.3884109 1,30.6229931 1,32.1056708 C1,33.908957 1.3004142,36.5404001 1.90124261,40 C3.99318117,40 22.7937852,40 58.3030548,40 C59.768738,35.1545073 58.9226607,32.5385816 55.7648228,32.1522232 C52.606985,31.7658647 49.9837155,31.4170139 47.8950143,31.1056708 L21.6799926,19.4188835 C21.1755635,19.1940064 20.584344,19.4206282 20.359467,19.9250573 C20.35562,19.9336867 20.3518954,19.9423702 20.3482945,19.9511052 L18.6632131,24.038695 C15.7398812,25.4026522 13.3643706,26.0846307 11.5366811,26.0846307 C10.0517269,26.0846307 8.00099246,25.4849054 5.38447792,24.2854549 L5.38448339,24.285443 C4.38038273,23.8251478 3.19325534,24.2659892 2.73296014,25.2700899 C2.71312074,25.3133681 2.69483298,25.3573409 2.67813181,25.4019242 Z" id="shoe"/>
                        </g>
                        <path d="M155.862091,66.2500522 C125.365272,61.2817352 104.938089,57.8844191 94.5805425,56.0581041 C65.057451,50.8523866 56.4482664,34.9653306 61.538476,0.302228659 L115.93427,0.302228659 C123.132679,2.38099361 153.210425,15.2374805 206.167508,38.8716893 C215.695532,43.6015333 213.921101,57.5474982 212.179547,62.1420768 C212.10852,62.3294612 196.046098,89.8530148 163.99228,144.712738 L119.494227,116.36549 L155.945659,69.5903876 C156.908306,67.6514874 156.88045,66.5380423 155.862091,66.2500522 Z" id="Leg-and-Butt" fill="#5C63AB"/>
                    </g>
                    <g id="Body/Long-Sleeve-1" transform="translate(3.000000, 78.000000)">
                        <path d="M156.781205,96.2114854 L188.679476,119.635084 C197.330944,121.969562 204.558965,124.874047 210.363541,128.34854 C211.734683,129.597945 213.391836,132.128197 207.70538,131.690906 C202.018925,131.253615 196.01796,131.049392 195.233339,132.988954 C194.448719,134.928516 197.889854,137.24802 196.303794,139.864997 C195.246421,141.609648 190.250967,137.234999 181.31743,126.74105 L149.729774,113.642447 L156.781205,96.2114854 Z M34.3079281,97.0198914 L55.2053198,97.1020711 C42.3021447,138.755739 35.3363474,160.856914 34.3079281,163.405597 C31.9939846,169.140133 36.8906002,177.873732 38.9845874,182.567103 C32.1645409,185.61887 32.8912241,174.316929 24.2879189,178.319492 C16.4352209,181.972846 10.4616931,188.59248 1.38903521,182.994371 C0.273605235,182.306117 -0.948724292,179.714714 2.00457838,177.68967 C9.36233234,172.644547 19.9653015,163.814672 21.3979297,160.908251 C23.3515741,156.944826 27.6549068,135.648706 34.3079281,97.0198914 Z" id="Skin" fill="#B28B67"/>
                        <path d="M88.7317339,13.5803108 L97.2166854,11.3491401 C131.5935,36.1628362 149.361709,88.0563407 190.996623,112.72736 L182.58973,125.240539 C113.889238,122.771641 91.3833141,59.5469019 88.7317339,13.5803108 Z" id="Coat-Back" fill="#E87613" transform="translate(139.864178, 68.294840) rotate(5.000000) translate(-139.864178, -68.294840) "/>
                        <path d="M56,118 C90.6717559,118 116.175573,118 132.511451,118 C136.007634,118 135.348845,112.951637 134.84345,110.404206 C129.010588,81.0037663 106.241304,49.3115155 106.241304,7.4607303 L84.1718001,4 C65.917485,33.3584068 59.6048263,69.5045499 56,118 Z" id="Shirt" fill="#DDE3E9"/>
                        <path d="M56.6148413,32.8579585 C53.4095228,31.9365884 50.8712423,29.7876656 49,26.4111902 C40.933557,11.8560758 43.8467271,3.84240721 52.4671964,1.2082691 C61.0876658,-1.42586901 68.7753192,4 82.5100313,4 C83.2570852,4 83.9413025,4.04683253 84.5626831,4.1404976 L91.4715873,4.53473994 C111.293986,71.7151944 116.760885,116.536948 107.872285,139 L47.6518141,139 C44.0838152,147.319871 40.6695413,154.319871 37.4089926,160 L21,160 C19.4556832,110.067091 31.327297,67.6864104 56.6148413,32.8579585 Z" id="Coat-Front" fill="#FF9B21"/>
                        <path d="M60.7652287,104.497634 C62.6591508,120.344024 65.7374079,131.844812 70,139 L47.6518141,139 C51.813785,129.295103 56.1849231,117.794314 60.7652283,104.497633 Z" id="Shade" fill-opacity="0.1" fill="#000000"/>
                    </g>
                </g>
            </g>
        </g>
    </g>
</svg>