<svg width="513" height="546" viewBox="0 0 513 546" xmlns="http://www.w3.org/2000/svg"><g fill="none" fill-rule="evenodd"><g transform="translate(43)"><rect fill="#F2F2F2" width="428" height="374" rx="8"/><path d="M8 0h412a8 8 0 018 8v21H0V8a8 8 0 018-8z" fill="#C5CFD6"/><g transform="translate(9 10)" fill="#F2F2F2"><circle cx="4" cy="4" r="4"/><circle cx="16" cy="4" r="4"/><circle cx="28" cy="4" r="4"/></g><g transform="translate(342 132)"><rect fill="#FFF" width="70" height="220" rx="8"/><g transform="translate(18 18)"><rect fill="#DDE3E9" width="34" height="29.841" rx="4"/><rect fill="#AFB9C5" y="39.023" width="34" height="28.693" rx="4"/><rect fill="#DDE3E9" y="76.898" width="34" height="28.693" rx="4"/><rect fill="#DDE3E9" y="152.648" width="34" height="28.693" rx="4"/><rect fill="#C5CFD6" y="114.773" width="34" height="28.693" rx="4"/></g></g><g transform="translate(342 43)"><rect fill="#FFF" width="70" height="88.442" rx="8"/><g transform="translate(10 17.378)" fill="#DDE3E9"><circle cx="25" cy="16.47" r="16"/><rect y="35" width="50" height="6" rx="3"/><rect x="8" y="45" width="34" height="6" rx="3"/></g></g><g transform="translate(16 43)"><rect fill="#FFF" width="318" height="51.318" rx="4"/><g transform="translate(9 15.395)" fill="#DDE3E9"><rect width="260" height="7.698" rx="3"/><rect y="12.83" width="174.521" height="7.698" rx="3"/></g><g transform="translate(277.015 18.659)"><circle fill="#DDE3E9" cx="7" cy="7" r="7"/><circle fill="#F2F2F2" cx="7" cy="7" r="3"/></g></g><g transform="translate(16 103.053)"><rect fill="#FFF" width="318" height="42.583" rx="4"/><g transform="translate(9 12.775)" fill="#DDE3E9"><rect width="260" height="6.387" rx="3"/><rect y="10.646" width="174.521" height="6.387" rx="3"/></g><g transform="translate(277.015 14.292)"><circle fill="#DDE3E9" cx="7" cy="7" r="7"/><circle fill="#F2F2F2" cx="7" cy="7" r="3"/></g></g><g transform="translate(16 154.371)"><rect fill="#FFF" width="318" height="42.583" rx="4"/><g transform="translate(9 12.775)" fill="#DDE3E9"><rect width="260" height="6.387" rx="3"/><rect y="10.646" width="174.521" height="6.387" rx="3"/></g><g transform="translate(277.015 14.292)"><circle fill="#DDE3E9" cx="7" cy="7" r="7"/><circle fill="#AFB9C5" cx="7" cy="7" r="3"/></g></g><g transform="translate(16 308.325)"><rect fill="#FFF" width="318" height="42.583" rx="4"/><g transform="translate(9 12.775)" fill="#DDE3E9"><rect width="260" height="6.387" rx="3"/><rect y="10.646" width="174.521" height="6.387" rx="3"/></g><g transform="translate(277.015 14.292)"><circle fill="#DDE3E9" cx="7" cy="7" r="7"/><circle fill="#F2F2F2" cx="7" cy="7" r="3"/></g></g><g transform="translate(16 257.007)"><rect fill="#FFF" width="318" height="42.583" rx="4"/><g transform="translate(9 12.775)" fill="#DDE3E9"><rect width="260" height="6.387" rx="3"/><rect y="10.646" width="174.521" height="6.387" rx="3"/></g><g transform="translate(277.015 14.292)"><circle fill="#DDE3E9" cx="7" cy="7" r="7"/><circle fill="#F2F2F2" cx="7" cy="7" r="3"/></g></g><g transform="translate(16 205.689)"><rect fill="#FFF" width="318" height="42.583" rx="4"/><g transform="translate(9 12.775)" fill="#DDE3E9"><rect width="260" height="6.387" rx="3"/><rect y="10.646" width="174.521" height="6.387" rx="3"/></g><g transform="translate(277.015 14.292)"><circle fill="#DDE3E9" cx="7" cy="7" r="7"/><circle fill="#F2F2F2" cx="7" cy="7" r="3"/></g></g></g><path d="M110.61 127.011c-4.726-4.167-8.29-9.588-8.745-16.159-1.312-18.932 25.514-18.497 31.95-9.753 6.435 8.745 9.201 32.83 2.84 35.449-2.536 1.044-8.374.18-14.56-2.437l7.122 24.687-21.145 2.971 2.538-34.758z" fill="#D4A181"/><path d="M124.014 91.968c-3.012-.47-7.248-.178-8.984.271.667-2.532.691-5.252.002-7.8-.67-2.476-2.104-4.462-3.468-6.564-.628-.969-1.32-1.923-2.248-2.6-.944-.692-2.071-1.077-3.21-1.176-1.166-.102-2.343.086-3.44.48-.486.176-.903.466-1.376.661-.484.2-.771-.078-1.18-.34-.985-.634-2.326-.827-3.456-.804-1.269.025-2.537.394-3.669.969-1.102.56-2.124 1.36-2.829 2.416-.314.47-.585.994-.731 1.55-.06.228-.057.358-.262.467-.19.102-.424.137-.62.235-1.902.953-3.393 2.727-4.046 4.826-.38 1.225-.353 3.284.036 5.541.388 2.257 3.279 7.883 5.507 9.77 1.99 1.684 4.695 2.6 7.211 2.814-1.36 2.066-2.114 4.516-2.582 6.965a31.838 31.838 0 00-.493 8.09c.17 2.58.533 5.284 1.486 7.699.892 2.258 2.366 4.006 4.548 4.94 1 .427 2.05.707 3.1.95 1.036.238 2.073.466 3.132.533 2.004.127 4.238-.257 5.522-2.01.462-.631.959-1.413 1.258-2.147.108-.264.17-.436-.035-.65-.247-.257-.612-.43-.908-.616-1.692-1.062-2.867-2.632-3.387-4.621-.528-2.018-.346-4.745 1.535-5.922 2.321-1.454 5.227-.568 7.595.305.474-3.414 1.98-6.64 4.78-8.57 3.097-2.134 6.893-2.866 10.116-4.777.84-.498 1.69-1.048 2.24-1.9.23-.356.494-.812.545-1.247.066-.572-.356-.983-.693-1.374-1.784-2.072-7.983-5.894-10.996-6.364z" fill="#191847"/><path fill="#BA8B72" d="M115.7 231.93l66.133 110.192 49.58 93.16h10.68L159.02 231.93z"/><path d="M224.78 430.916c-.93 2.493-1.395 4.368-1.395 5.625 0 1.578.266 3.88.798 6.907h49.93c1.297-4.24.548-6.528-2.247-6.866a279.59 279.59 0 01-6.967-.916l-23.105-10.181a1 1 0 00-1.326.53l-1.446 3.467c-2.588 1.194-4.691 1.79-6.31 1.79-1.275 0-3.024-.494-5.244-1.483a2 2 0 00-2.688 1.127z" fill="#E4E4E4"/><path d="M217.643 420.364l20.595-6.21c-9.023-26.884-20.082-56.468-33.177-88.754-13.095-32.286-27.159-63.443-42.191-93.47h-58.167c16.713 37.983 34.43 72.496 53.153 103.538 18.722 31.043 38.651 59.341 59.787 84.896z" fill="#DB2721"/><path d="M111.354 231.93c-6.242 38.722-18.28 88.195-19.416 89.721-.758 1.018-28.025 10.125-81.801 27.32l2.307 9.385c64.128-9.222 97.918-16.376 101.37-21.464 5.178-7.63 31.032-67.917 41.046-104.962h-43.506z" fill="#D4A181"/><path d="M29.04 340.857l4.064 15.116c47.964 4.193 77.352 1.164 88.165-9.088 10.814-10.252 23.138-48.57 36.972-114.955h-55.465c-8.766 54.36-13.666 82.681-14.701 84.963-1.036 2.282-20.714 10.27-59.035 23.964z" fill="#FF4133"/><path d="M12.832 344.866c-2.617-.483-4.544-.615-5.782-.397-1.553.274-3.775.936-6.664 1.985l8.67 49.171c4.401.542 6.525-.594 6.373-3.405a279.59 279.59 0 01-.308-7.02l6.014-24.522a1 1 0 00-.752-1.214l-3.666-.822c-1.625-2.341-2.578-4.309-2.858-5.902-.222-1.257-.039-3.065.55-5.423a2 2 0 00-1.577-2.451z" fill="#E4E4E4"/><path d="M150.124 174.708l28.264-21.013c4.244-6.741 8.602-12.126 13.075-16.154 1.421-.84 4.008-1.591 2.153 3.124-1.856 4.714-3.594 9.757-2.147 10.926 1.447 1.169 4.32-1.152 6.134.873 1.21 1.35-3.818 4.458-15.083 9.323l-19.391 23.426-13.005-10.505zm49.927 7.362l12.412-9.253c.881-7.42 2.63-11.338 5.248-11.752 1.885-1.218-.355 8.318 3.356 6.996 3.711-1.32 12.066-9.545 13.87-8.368 2.67 1.743 1.446 8.418-.606 11.941-3.835 6.585-7.415 9.156-16.596 13.154-4.8 2.09-9.809 5.631-15.028 10.624l-2.656-13.342z" fill="#BA8B72"/><path d="M134.693 173.08c10.706-1.62 24.688-5.886 38.588-17.682l7.863 12.475c-9.06 11.889-22.656 22.521-35.645 23.977-10.237 1.148-17.175-10.412-10.806-18.77z" fill="#2026A2"/><path d="M152.132 192.41c11.781 1.229 30.401-4.79 55.86-18.06 8.572 12.77 13.018 22.11 13.337 28.016-21.304 15.198-40.255 23.303-56.437 25.936 1.865 9.527 1.976 18.825-.788 27.725-5.685 18.295-55.323 9.067-70.822 14.435-14.523-30.907 2.931-46.75.042-67.425-3.165-22.642 10.176-60.054 12.86-60.43l24.47-3.44c3.78 17.1 13.255 35.2 21.478 53.242z" fill="#1F28CF"/><g transform="rotate(-14 492.62 -644.85)"><path d="M50.828 54.607l-.007.016c.003-.005.007-.025.007-.016" fill="#C5CFD6"/><path d="M50.823 54.614v.005c0-.005.008-.02 0-.005m.035-.084c-.007.02-.016.039-.024.059l.012-.028a5.5 5.5 0 01.012-.031" fill="#C5CFD6"/><path d="M50.836 54.59l-.012.028c-.03.056.012-.028.012-.028m-.011.024zm-.001.001l.001-.002-.001.002m-.004.007c-.007.012.027-.046 0 0m.004-.007l.002-.002-.002.002" fill="#C5CFD6"/><rect fill="#2B44FF" x=".575" y=".818" width="100" height="66" rx="4"/><g fill="#000" fill-opacity=".2"><path d="M38.37 20.093l-28.841 47h57.68z"/><path d="M68.105 32.682L42.61 67.092h50.993z"/></g><circle fill="#FFF" cx="79.017" cy="23.642" r="9.5"/></g><path d="M421.738 252.49c4.608-5.409 7.726-12.037 7.205-19.465-1.501-21.4-31.292-16.692-37.086-5.891-5.795 10.801-5.107 38.199 2.383 40.13 2.986.77 9.349-1.117 15.825-5.02L406 291h24l-8.262-38.51z" fill="#B28B67"/><path d="M423.582 257.308c3.012-13.402 11.593-22.537 10.283-28.526-.874-3.993-3.203-6.477-6.986-7.45-1.957-7.916-8.269-11.284-18.935-10.102-15.999 1.774-25.763 8.418-21.546 23.038 3.876 0 8.556-1.402 15.026 1 2.054.762 3.522 3.125 4.406 7.09h2.924c2.838-4.705 5.637-6.434 8.395-5.187 2.759 1.247 3.386 4.276 1.881 9.088l1.44 11.049h3.112z" fill="#191847"/><path d="M497 416H382c-8.837 0-16 7.163-16 16v92c0 8.837 7.163 16 16 16h115c8.837 0 16-7.163 16-16v-92c0-8.837-7.163-16-16-16zm-16 28a4 4 0 014 4v60a4 4 0 01-4 4h-83a4 4 0 01-4-4v-60a4 4 0 014-4h83z" fill="#C5CFD6"/><path d="M266.841 535c19.716-24.076 33.056-41.925 40.02-53.546 11.926-19.9 21.686-37.606 24.766-44.37 7.345-16.129-16.909-23.681-22.398-16.158-8.308 11.386-26.051 47.217-53.229 107.491L266.841 535z" fill="#B28B67"/><path d="M307.242 528l36.693-92.363c7.848-16.837-30.05-27.905-35.818-20.07-13.094 17.79-44.216 87.967-48.117 93.267L307.242 528z" fill="#2F3676"/><path d="M404.967 509.477c-7.148-10.426-33.146-45.503-47.306-60.016-4.07-4.17-8.04-8.173-11.795-11.904-11.162-11.087-33.39 7.549-22.248 17.648 27.747 25.15 68.23 59.102 71.613 62.13 4.741 4.242 14.228-1.306 9.736-7.858z" fill="#B28B67"/><path d="M403.295 504.767c2.463 2.027 4.064 3.683 4.806 4.967.901 1.562 1.957 3.99 3.166 7.287l-48.845 28.201c-3.692-3.463-4.267-6.152-1.726-8.065a312.366 312.366 0 006.292-4.842l16.86-23.228a1 1 0 011.42-.205l3.502 2.697c3.214-.28 5.612-.877 7.195-1.791 1.286-.743 2.762-2.287 4.428-4.634a2 2 0 012.902-.387zm-127.973 26.635c1.119 2.986 1.678 5.221 1.678 6.704 0 1.803-.3 4.434-.901 7.894h-56.402c-1.466-4.845-.62-7.461 2.538-7.848 3.158-.386 5.781-.735 7.87-1.046l26.215-11.687a1 1 0 011.332.532l1.685 4.088c2.923 1.364 5.299 2.046 7.126 2.046 1.485 0 3.536-.6 6.153-1.8a2 2 0 012.706 1.117z" fill="#E4E4E4"/><path d="M357.138 440.25c30.497-4.968 50.924-8.366 61.281-10.192 29.524-5.206 38.133-21.093 33.043-55.756h-54.396c-7.199 2.079-37.276 14.935-90.234 38.57-9.528 4.73-7.753 18.675-6.012 23.27.071.187 16.134 27.711 48.188 82.57l44.498-28.347-36.452-46.775c-.962-1.939-.934-3.052.084-3.34z" fill="#5C63AB"/><path d="M353.219 361.211l-31.898 23.424c-8.652 2.335-15.88 5.239-21.685 8.714-1.37 1.249-3.028 3.78 2.659 3.342 5.686-.437 11.687-.642 12.472 1.298.784 1.94-2.657 4.259-1.07 6.876 1.057 1.745 6.052-2.63 14.986-13.124l31.587-13.099-7.051-17.43zm122.473.809l-20.897.082c12.903 41.654 19.869 63.755 20.897 66.304 2.314 5.734-2.583 14.468-4.677 19.161 6.82 3.052 6.094-8.25 14.697-4.248 7.853 3.654 13.826 10.273 22.899 4.675 1.115-.688 2.338-3.28-.616-5.304-7.357-5.045-17.96-13.875-19.393-16.782-1.954-3.963-6.257-25.26-12.91-63.888z" fill="#B28B67"/><path d="M416.305 274.332l-8.647-1.483c-32.083 27.715-45.261 80.96-84.587 109.166l9.465 11.733c68.224-8.448 85.134-73.393 83.769-119.416z" fill="#E87613"/><path d="M454 383h-76.511c-3.497 0-2.838-5.048-2.332-7.596 5.832-29.4 28.602-61.092 28.602-102.943l22.07-3.461c18.254 29.358 24.566 65.505 28.171 114z" fill="#DDE3E9"/><path d="M453.385 297.858c3.205-.921 5.744-3.07 7.615-6.447 8.066-14.555 5.153-22.569-3.467-25.203-8.62-2.634-16.308 2.792-30.043 2.792-.747 0-1.431.047-2.053.14l-6.909.395c-19.822 67.18-25.289 112.002-16.4 134.465h60.22c3.568 8.32 6.982 15.32 10.243 21H489c1.544-49.933-10.327-92.314-35.615-127.142z" fill="#FF9B21"/><path d="M449.235 369.498C447.34 385.344 444.263 396.845 440 404h22.348c-4.162-9.705-8.533-21.206-13.113-34.502z" fill-opacity=".1" fill="#000"/></g></svg>